{"title":"Neerja 2016 WEBRip x264 AAC Hindi-CDRiPD","uid":14463657,"size":612487840,"categoryP":"video","categoryS":"movies","magnet":"?xt=urn:btih:9446327b96ed58bf7bb58cbed5abdba12635e5b3&amp;dn=Neerja+2016+WEBRip+x264+AAC+Hindi-CDRiPD&amp;tr=udp%3A%2F%2Ftracker.leechers-paradise.org%3A6969&amp;tr=udp%3A%2F%2Fzer0day.ch%3A1337&amp;tr=udp%3A%2F%2Fopen.demonii.com%3A1337&amp;tr=udp%3A%2F%2Ftracker.coppersurfer.tk%3A6969&amp;tr=udp%3A%2F%2Fexodus.desync.com%3A6969","seeders":2,"leechers":0,"uploader":"CDRiPD","files":3,"time":1461834564,"description":"Neerja 2016 WEBRip x264 AAC Hindi-CDRiPD\r\n\r\nFormat                                   : MPEG-4\r\nFormat profile                           : Base Media\r\nCodec ID                                 : isom (isom/avc1)\r\nFile size                                : 577 MiB\r\nDuration                                 : 1h 56mn\r\nOverall bit rate mode                    : Variable\r\nOverall bit rate                         : 691 Kbps\r\n\r\nVideo\r\nID                                       : 1\r\nFormat                                   : AVC\r\nFormat/Info                              : Advanced Video Codec\r\nFormat profile                           :   \r\nFormat settings, CABAC                   : Yes\r\nFormat settings, ReFrames                : 5 frames\r\nCodec ID                                 : avc1\r\nCodec ID/Info                            : Advanced Video Coding\r\nDuration                                 : 1h 56mn\r\nBit rate                                 : 648 Kbps\r\nMaximum bit rate                         : 2 469 Kbps\r\nWidth                                    : 656 pixels\r\nHeight                                   : 288 pixels\r\nDisplay aspect ratio                     : 2.25:1\r\nFrame rate mode                          : Constant\r\nFrame rate                               : 25.000 fps\r\nColor space                              : YUV\r\nChroma subsampling                       : 4:2:0\r\nBit depth                                : 8 bits\r\nScan type                                : Progressive\r\nBits/(Pixel*Frame)                       : 0.137\r\nStream size                              : 541 MiB (94%)\r\nWriting library                          : x264 core 148 r2665 a01e339\r\nAudio\r\nID                                       : 2\r\nFormat                                   : AAC\r\nFormat/Info                              : Advanced Audio Codec\r\nFormat profile                           : HE-AAC / LC\r\nCodec ID                                 : 40\r\nDuration                                 : 1h 56mn\r\nBit rate mode                            : Variable\r\nBit rate                                 : 39.9 Kbps\r\nMaximum bit rate                         : 46.4 Kbps\r\nChannel(s)                               : 2 channels\r\nChannel positions                        : Front: L R\r\nSampling rate                            : 48.0 KHz / 24.0 KHz\r\nFrame rate                               : 23.438 fps (1024 spf)\r\nCompression mode                         : Lossy\r\nStream size                              : 33.3 MiB (6%)\r\nLanguage                                 : Hindi             \r\n\r\n\r\nScreens:\r\n \nhttps://ititli.com/Xxm \nhttps://ititli.com/Xxx \nhttps://ititli.com/Xx7 \nhttps://ititli.com/XxC \nhttps://ititli.com/XxF \nhttps://ititli.com/XxJ \nhttps://ititli.com/Xx5 \nhttps://ititli.com/XxB \nhttps://ititli.com/XxN \nhttps://ititli.com/XxP \nhttps://ititli.com/Xxf \nhttps://ititli.com/Xxu\r\n\r\n\r\nVisit DDRTorrents.com","torrent":{"xt":"urn:btih:9446327b96ed58bf7bb58cbed5abdba12635e5b3","amp;dn":"Neerja+2016+WEBRip+x264+AAC+Hindi-CDRiPD","amp;tr":["udp%3A%2F%2Ftracker.leechers-paradise.org%3A6969","udp%3A%2F%2Fzer0day.ch%3A1337","udp%3A%2F%2Fopen.demonii.com%3A1337","udp%3A%2F%2Ftracker.coppersurfer.tk%3A6969","udp%3A%2F%2Fexodus.desync.com%3A6969"],"infoHash":"9446327b96ed58bf7bb58cbed5abdba12635e5b3","infoHashBuffer":{"type":"Buffer","data":[148,70,50,123,150,237,88,191,123,181,140,190,213,171,219,161,38,53,229,179]},"announce":[],"urlList":[]}}